#!OML:ASF X:\für Bonn\!DataBase\2005_08_12_Daniel\c3d\Daniel.ASF
:FULLY-SPECIFIED
:DEGREES
33
root 11.8606 16.1716 -5.51234 -733.54 -48.8445 2.712
lowerback 43.5991 -1.33835 0.526761
upperback 11.5447 -2.94171 -5.01629
thorax -7.87948 -1.60601 -4.3603
lowerneck 0.540081 5.98519 -3.70436
upperneck 8.77004 8.31643 -5.19675
head 2.78506 3.79881 -0.853342
rclavicle 1.11319e-014 -1.74931e-014
rhumerus -21.4055 11.7145 -86.9125
rradius 41.5834
rwrist 5.05732
rhand -18.6419 -340.239
rfingers 7.12502
rthumb 7.65076 -370.081
lclavicle 1.11319e-014 -1.74931e-014
lhumerus -383.073 12.0281 -285.157
lradius 40.9682
lwrist -11.0867
lhand -15.2815 355.866
lfingers 7.12502
lthumb 10.8933 385.563
rfemur -11.3043 1.52834 28.0241
rtibia 49.7971
rfoot -21.6811 10.9246
rtoes 10.3092
lfemur -31.4754 -11.6498 -9.37867
ltibia 41.7221
lfoot -17.4436 -4.3706
ltoes -3.93849
34
root 11.8866 16.1208 -5.44908 -733.569 -49.4028 2.54155
lowerback 44.4058 -1.32403 0.515132
upperback 11.716 -2.98317 -5.08182
thorax -7.91416 -1.63292 -4.39812
lowerneck 0.627738 5.98339 -3.8967
upperneck 8.41088 8.29309 -5.23731
head 2.64092 3.79587 -0.842418
rclavicle -9.38264e-014 5.48646e-014
rhumerus -20.8803 11.8248 -86.7317
rradius 41.4069
rwrist 5.18203
rhand -18.9128 -340.113
rfingers 7.12502
rthumb 7.3893 -369.964
lclavicle -9.38264e-014 5.48646e-014
lhumerus -382.642 11.461 -285.261
lradius 41.3113
lwrist -10.7329
lhand -15.5577 355.791
lfingers 7.12502
lthumb 10.6269 385.502
rfemur -11.5649 0.625507 27.9481
rtibia 50.7945
rfoot -22.3046 10.8928
rtoes 10.236
lfemur -31.7773 -11.5598 -9.30113
ltibia 41.3152
lfoot -17.8849 -4.12041
ltoes -4.46563
35
root 11.9126 16.0655 -5.38538 -733.577 -49.9439 2.37166
lowerback 45.2131 -1.28931 0.474943
upperback 11.8654 -3.01027 -5.1239
thorax -7.96219 -1.65379 -4.40237
lowerneck 0.740405 5.98947 -4.17526
upperneck 8.05711 8.27165 -5.17113
head 2.4856 3.79509 -0.784648
rclavicle 4.85035e-014 -1.59028e-014
rhumerus -20.4177 12.0817 -86.4963
rradius 41.2916
rwrist 5.13061
rhand -19.1768 -340.012
rfingers 7.12502
rthumb 7.13454 -369.872
lclavicle 4.85035e-014 -1.59028e-014
lhumerus -382.25 10.9749 -285.357
lradius 41.6689
lwrist -10.5264
lhand -15.7855 355.706
lfingers 7.12502
lthumb 10.4071 385.429
rfemur -11.9146 -0.32393 27.852
rtibia 51.8875
rfoot -22.9113 10.8969
rtoes 10.2776
lfemur -32.1231 -11.4243 -9.25367
ltibia 41.0727
lfoot -18.409 -3.97905
ltoes -5.49261
36
root 11.9397 16.0064 -5.32225 -733.567 -50.4598 2.21228
lowerback 46.0102 -1.23129 0.410647
upperback 12.0119 -3.01853 -5.1442
thorax -7.99942 -1.66673 -4.3797
lowerneck 0.829541 5.967 -4.43131
upperneck 7.73915 8.21703 -5.13474
head 2.34996 3.77628 -0.73975
rclavicle -3.57812e-014 2.78299e-014
rhumerus -19.949 12.3699 -86.2049
rradius 41.1615
rwrist 5.00929
rhand -19.384 -339.878
rfingers 7.12502
rthumb 6.9345 -369.745
lclavicle -3.57812e-014 2.78299e-014
lhumerus -381.803 10.5567 -285.426
lradius 41.981
lwrist -10.4415
lhand -15.9391 355.551
lfingers 7.12502
lthumb 10.259 385.281
rfemur -12.3461 -1.31433 27.737
rtibia 53.0641
rfoot -23.5318 10.8952
rtoes 10.2708
lfemur -32.5543 -11.2336 -9.24699
ltibia 41.0336
lfoot -18.7772 -4.09689
ltoes -5.7632
37
root 11.9667 15.944 -5.25902 -733.52 -50.964 2.00261
lowerback 46.8017 -1.16242 0.348362
upperback 12.1593 -3.01185 -5.13869
thorax -8.02389 -1.6739 -4.33754
lowerneck 0.998353 5.93857 -4.6378
upperneck 7.33976 8.14641 -5.1564
head 2.17945 3.75456 -0.725189
rclavicle -8.74653e-015 -2.38542e-015
rhumerus -19.5263 12.7228 -85.8668
rradius 41.1056
rwrist 4.80616
rhand -19.4985 -339.846
rfingers 7.12502
rthumb 6.82398 -369.716
lclavicle -8.74653e-015 -2.38542e-015
lhumerus -381.348 10.1208 -285.477
lradius 42.2977
lwrist -10.3055
lhand -16.1007 355.43
lfingers 7.12502
lthumb 10.103 385.168
rfemur -12.8028 -2.34434 27.6404
rtibia 54.3112
rfoot -24.1357 10.9656
rtoes 10.3906
lfemur -33.0386 -10.9957 -9.22843
ltibia 41.2303
lfoot -18.8256 -4.43384
ltoes -5.53041
